<svg width="320" height="120" xmlns="http://www.w3.org/2000/svg" xmlns:svg="http://www.w3.org/2000/svg" aria-label="Mustache">
 <g class="layer">
  <title>Layer 1</title>
  <path d="m160,58.85c-12,-14 -32,-20 -52,-16c-20,4 -36,16 -56,16c-18,0 -30,-10 -34,-22c-4,18 2,38 18,46c18,9 42,4 60,-8c16,-10 30,-18 64,-16zm0,0c12,-14 32,-20 52,-16c20,4 36,16 56,16c18,0 30,-10 34,-22c4,18 -2,38 -18,46c-18,9 -42,4 -60,-8c-16,-10 -30,-18 -64,-16z" fill="#111" id="svg_1" transform="matrix(1 0 0 1 0 0) matrix(1 0 0 1.58544 0 -36.2309)"/>
 </g>
</svg>