<svg xmlns="http://www.w3.org/2000/svg" viewBox="0 0 320 120" width="320" height="120" role="img" aria-label="Mustache">
  <path fill="#111"
    d="M160 62
       C148 48, 128 42, 108 46
       C88 50, 72 62, 52 62
       C34 62, 22 52, 18 40
       C14 58, 20 78, 36 86
       C54 95, 78 90, 96 78
       C112 68, 126 60, 160 62
       Z
       M160 62
       C172 48, 192 42, 212 46
       C232 50, 248 62, 268 62
       C286 62, 298 52, 302 40
       C306 58, 300 78, 284 86
       C266 95, 242 90, 224 78
       C208 68, 194 60, 160 62
       Z"/>
</svg>